<svg xmlns="http://www.w3.org/2000/svg" xmlns:xlink="http://www.w3.org/1999/xlink" width="148" zoomAndPan="magnify" viewBox="0 0 110.88 23.999999" height="32" preserveAspectRatio="xMidYMid meet" version="1.0"><defs><g/><clipPath id="7447e6f6cd"><path d="M 0 0.0117188 L 110.761719 0.0117188 L 110.761719 23.984375 L 0 23.984375 Z M 0 0.0117188 " clip-rule="nonzero"/></clipPath><clipPath id="d720378d82"><path d="M 0 3 L 22 3 L 22 20 L 0 20 Z M 0 3 " clip-rule="nonzero"/></clipPath><clipPath id="d5a55adf4f"><path d="M 0 11.765625 L 10.664062 1.101562 L 21.332031 11.765625 L 10.664062 22.433594 Z M 0 11.765625 " clip-rule="nonzero"/></clipPath><clipPath id="9bf828d87f"><path d="M 0 11.765625 L 10.664062 1.101562 L 21.332031 11.765625 L 10.664062 22.433594 Z M 0 11.765625 " clip-rule="nonzero"/></clipPath></defs><g clip-path="url(#7447e6f6cd)"><path fill="#ffffff" d="M 0 0.0117188 L 110.878906 0.0117188 L 110.878906 23.988281 L 0 23.988281 Z M 0 0.0117188 " fill-opacity="1" fill-rule="nonzero"/></g><g clip-path="url(#d720378d82)"><g clip-path="url(#d5a55adf4f)"><g clip-path="url(#9bf828d87f)"><path fill="#4a6cf7" d="M 13.867188 14.101562 L 15.925781 12.042969 L 7.824219 3.941406 L 0 11.765625 L 8.101562 19.867188 L 10.160156 17.808594 L 3.84375 11.492188 L 7.550781 7.785156 Z M 11.257812 5.726562 L 17.574219 12.042969 L 13.867188 15.75 L 7.550781 9.433594 L 5.492188 11.492188 L 13.59375 19.59375 L 21.417969 11.765625 L 13.316406 3.667969 Z M 11.257812 5.726562 " fill-opacity="1" fill-rule="nonzero"/></g></g></g><g fill="#4a6cf7" fill-opacity="1"><g transform="translate(23.593731, 15.120909)"><g><path d="M 3.390625 -7.3125 C 4.160156 -7.3125 4.832031 -7.160156 5.40625 -6.859375 C 5.988281 -6.554688 6.4375 -6.125 6.75 -5.5625 C 7.0625 -5.007812 7.21875 -4.375 7.21875 -3.65625 C 7.21875 -2.9375 7.0625 -2.300781 6.75 -1.75 C 6.4375 -1.195312 5.988281 -0.765625 5.40625 -0.453125 C 4.820312 -0.148438 4.148438 0 3.390625 0 L 0.640625 0 L 0.640625 -7.3125 Z M 3.265625 -1.546875 C 3.941406 -1.546875 4.46875 -1.726562 4.84375 -2.09375 C 5.21875 -2.457031 5.40625 -2.976562 5.40625 -3.65625 C 5.40625 -4.332031 5.21875 -4.859375 4.84375 -5.234375 C 4.46875 -5.609375 3.941406 -5.796875 3.265625 -5.796875 L 2.421875 -5.796875 L 2.421875 -1.546875 Z M 3.265625 -1.546875 "/></g></g></g><g fill="#4a6cf7" fill-opacity="1"><g transform="translate(36.384029, 15.120909)"><g><path d="M 3.296875 0.078125 C 2.722656 0.078125 2.207031 -0.0390625 1.75 -0.28125 C 1.300781 -0.519531 0.945312 -0.863281 0.6875 -1.3125 C 0.425781 -1.769531 0.296875 -2.300781 0.296875 -2.90625 C 0.296875 -3.5 0.425781 -4.023438 0.6875 -4.484375 C 0.945312 -4.941406 1.304688 -5.289062 1.765625 -5.53125 C 2.222656 -5.78125 2.738281 -5.90625 3.3125 -5.90625 C 3.882812 -5.90625 4.398438 -5.78125 4.859375 -5.53125 C 5.316406 -5.289062 5.675781 -4.941406 5.9375 -4.484375 C 6.207031 -4.023438 6.34375 -3.5 6.34375 -2.90625 C 6.34375 -2.3125 6.207031 -1.785156 5.9375 -1.328125 C 5.664062 -0.867188 5.296875 -0.519531 4.828125 -0.28125 C 4.367188 -0.0390625 3.859375 0.078125 3.296875 0.078125 Z M 3.296875 -1.453125 C 3.628906 -1.453125 3.914062 -1.578125 4.15625 -1.828125 C 4.394531 -2.078125 4.515625 -2.4375 4.515625 -2.90625 C 4.515625 -3.375 4.398438 -3.734375 4.171875 -3.984375 C 3.941406 -4.234375 3.65625 -4.359375 3.3125 -4.359375 C 2.96875 -4.359375 2.679688 -4.234375 2.453125 -3.984375 C 2.222656 -3.734375 2.109375 -3.375 2.109375 -2.90625 C 2.109375 -2.4375 2.21875 -2.078125 2.4375 -1.828125 C 2.664062 -1.578125 2.953125 -1.453125 3.296875 -1.453125 Z M 3.296875 -1.453125 "/></g></g></g><g fill="#4a6cf7" fill-opacity="1"><g transform="translate(48.236377, 15.120909)"><g><path d="M 0.296875 -2.90625 C 0.296875 -3.507812 0.414062 -4.035156 0.65625 -4.484375 C 0.90625 -4.941406 1.25 -5.289062 1.6875 -5.53125 C 2.132812 -5.78125 2.640625 -5.90625 3.203125 -5.90625 C 3.929688 -5.90625 4.539062 -5.710938 5.03125 -5.328125 C 5.53125 -4.941406 5.851562 -4.398438 6 -3.703125 L 4.109375 -3.703125 C 3.941406 -4.148438 3.628906 -4.375 3.171875 -4.375 C 2.847656 -4.375 2.585938 -4.242188 2.390625 -3.984375 C 2.203125 -3.734375 2.109375 -3.375 2.109375 -2.90625 C 2.109375 -2.4375 2.203125 -2.070312 2.390625 -1.8125 C 2.585938 -1.5625 2.847656 -1.4375 3.171875 -1.4375 C 3.628906 -1.4375 3.941406 -1.660156 4.109375 -2.109375 L 6 -2.109375 C 5.851562 -1.421875 5.53125 -0.882812 5.03125 -0.5 C 4.539062 -0.113281 3.929688 0.078125 3.203125 0.078125 C 2.640625 0.078125 2.132812 -0.0390625 1.6875 -0.28125 C 1.25 -0.519531 0.90625 -0.863281 0.65625 -1.3125 C 0.414062 -1.769531 0.296875 -2.300781 0.296875 -2.90625 Z M 0.296875 -2.90625 "/></g></g></g><g fill="#4a6cf7" fill-opacity="1"><g transform="translate(59.755232, 15.120909)"><g><path d="M 2.421875 -7.71875 L 2.421875 0 L 0.640625 0 L 0.640625 -7.71875 Z M 2.421875 -7.71875 "/></g></g></g><g fill="#4a6cf7" fill-opacity="1"><g transform="translate(68.043376, 15.120909)"><g><path d="M 1.546875 -6.421875 C 1.234375 -6.421875 0.976562 -6.507812 0.78125 -6.6875 C 0.582031 -6.875 0.484375 -7.101562 0.484375 -7.375 C 0.484375 -7.65625 0.582031 -7.882812 0.78125 -8.0625 C 0.976562 -8.25 1.234375 -8.34375 1.546875 -8.34375 C 1.847656 -8.34375 2.097656 -8.25 2.296875 -8.0625 C 2.492188 -7.882812 2.59375 -7.65625 2.59375 -7.375 C 2.59375 -7.101562 2.492188 -6.875 2.296875 -6.6875 C 2.097656 -6.507812 1.847656 -6.421875 1.546875 -6.421875 Z M 2.421875 -5.8125 L 2.421875 0 L 0.640625 0 L 0.640625 -5.8125 Z M 2.421875 -5.8125 "/></g></g></g><g fill="#4a6cf7" fill-opacity="1"><g transform="translate(76.33152, 15.120909)"><g><path d="M 4.1875 -5.875 C 4.875 -5.875 5.421875 -5.648438 5.828125 -5.203125 C 6.234375 -4.765625 6.4375 -4.160156 6.4375 -3.390625 L 6.4375 0 L 4.65625 0 L 4.65625 -3.15625 C 4.65625 -3.539062 4.550781 -3.84375 4.34375 -4.0625 C 4.144531 -4.28125 3.878906 -4.390625 3.546875 -4.390625 C 3.203125 -4.390625 2.925781 -4.28125 2.71875 -4.0625 C 2.519531 -3.84375 2.421875 -3.539062 2.421875 -3.15625 L 2.421875 0 L 0.640625 0 L 0.640625 -5.8125 L 2.421875 -5.8125 L 2.421875 -5.046875 C 2.609375 -5.304688 2.851562 -5.507812 3.15625 -5.65625 C 3.457031 -5.800781 3.800781 -5.875 4.1875 -5.875 Z M 4.1875 -5.875 "/></g></g></g><g fill="#4a6cf7" fill-opacity="1"><g transform="translate(88.569467, 15.120909)"><g><path d="M 4.203125 0 L 2.421875 -2.4375 L 2.421875 0 L 0.640625 0 L 0.640625 -7.71875 L 2.421875 -7.71875 L 2.421875 -3.453125 L 4.1875 -5.8125 L 6.390625 -5.8125 L 3.96875 -2.890625 L 6.40625 0 Z M 4.203125 0 "/></g></g></g></svg>