<svg xmlns="http://www.w3.org/2000/svg" xmlns:xlink="http://www.w3.org/1999/xlink" width="148" zoomAndPan="magnify" viewBox="0 0 110.88 25.5" height="34" preserveAspectRatio="xMidYMid meet" version="1.0"><defs><g/><clipPath id="5d7392395c"><path d="M 1.007812 0 L 109.753906 0 L 109.753906 25.007812 L 1.007812 25.007812 Z M 1.007812 0 " clip-rule="nonzero"/></clipPath><clipPath id="9f6e674247"><path d="M 1.007812 3 L 24 3 L 24 21 L 1.007812 21 Z M 1.007812 3 " clip-rule="nonzero"/></clipPath><clipPath id="d3f9169579"><path d="M 1.007812 12.238281 L 12.140625 1.105469 L 23.269531 12.238281 L 12.140625 23.367188 Z M 1.007812 12.238281 " clip-rule="nonzero"/></clipPath><clipPath id="6368dae8d3"><path d="M 1.007812 12.238281 L 12.140625 1.105469 L 23.269531 12.238281 L 12.140625 23.367188 Z M 1.007812 12.238281 " clip-rule="nonzero"/></clipPath></defs><g clip-path="url(#5d7392395c)"><path fill="#ffffff" d="M 1.007812 0 L 109.871094 0 L 109.871094 25.007812 L 1.007812 25.007812 Z M 1.007812 0 " fill-opacity="1" fill-rule="nonzero"/></g><g clip-path="url(#9f6e674247)"><g clip-path="url(#d3f9169579)"><g clip-path="url(#6368dae8d3)"><path fill="#4a6cf7" d="M 15.476562 14.671875 L 17.628906 12.523438 L 9.175781 4.070312 L 1.007812 12.238281 L 9.460938 20.6875 L 11.609375 18.539062 L 5.019531 11.949219 L 8.886719 8.082031 Z M 12.757812 5.933594 L 19.347656 12.523438 L 15.476562 16.390625 L 8.886719 9.800781 L 6.738281 11.949219 L 15.191406 20.402344 L 23.359375 12.238281 L 14.90625 3.785156 Z M 12.757812 5.933594 " fill-opacity="1" fill-rule="nonzero"/></g></g></g><g fill="#000000" fill-opacity="1"><g transform="translate(26.105208, 15.661859)"><g><path d="M 3.546875 -7.671875 C 4.359375 -7.671875 5.066406 -7.507812 5.671875 -7.1875 C 6.273438 -6.875 6.742188 -6.425781 7.078125 -5.84375 C 7.410156 -5.257812 7.578125 -4.59375 7.578125 -3.84375 C 7.578125 -3.09375 7.410156 -2.425781 7.078125 -1.84375 C 6.742188 -1.257812 6.269531 -0.804688 5.65625 -0.484375 C 5.050781 -0.160156 4.347656 0 3.546875 0 L 0.671875 0 L 0.671875 -7.671875 Z M 3.4375 -1.625 C 4.144531 -1.625 4.691406 -1.816406 5.078125 -2.203125 C 5.472656 -2.585938 5.671875 -3.132812 5.671875 -3.84375 C 5.671875 -4.550781 5.472656 -5.097656 5.078125 -5.484375 C 4.691406 -5.878906 4.144531 -6.078125 3.4375 -6.078125 L 2.546875 -6.078125 L 2.546875 -1.625 Z M 3.4375 -1.625 "/></g></g></g><g fill="#000000" fill-opacity="1"><g transform="translate(39.534366, 15.661859)"><g><path d="M 3.453125 0.09375 C 2.859375 0.09375 2.320312 -0.03125 1.84375 -0.28125 C 1.363281 -0.539062 0.988281 -0.90625 0.71875 -1.375 C 0.445312 -1.851562 0.3125 -2.410156 0.3125 -3.046875 C 0.3125 -3.671875 0.445312 -4.222656 0.71875 -4.703125 C 1 -5.179688 1.378906 -5.546875 1.859375 -5.796875 C 2.335938 -6.054688 2.878906 -6.1875 3.484375 -6.1875 C 4.078125 -6.1875 4.613281 -6.054688 5.09375 -5.796875 C 5.570312 -5.546875 5.953125 -5.179688 6.234375 -4.703125 C 6.515625 -4.222656 6.65625 -3.671875 6.65625 -3.046875 C 6.65625 -2.421875 6.515625 -1.867188 6.234375 -1.390625 C 5.953125 -0.910156 5.566406 -0.539062 5.078125 -0.28125 C 4.597656 -0.03125 4.054688 0.09375 3.453125 0.09375 Z M 3.453125 -1.53125 C 3.804688 -1.53125 4.109375 -1.660156 4.359375 -1.921875 C 4.617188 -2.179688 4.75 -2.554688 4.75 -3.046875 C 4.75 -3.535156 4.625 -3.910156 4.375 -4.171875 C 4.132812 -4.441406 3.835938 -4.578125 3.484375 -4.578125 C 3.117188 -4.578125 2.8125 -4.445312 2.5625 -4.1875 C 2.320312 -3.925781 2.203125 -3.546875 2.203125 -3.046875 C 2.203125 -2.554688 2.320312 -2.179688 2.5625 -1.921875 C 2.800781 -1.660156 3.097656 -1.53125 3.453125 -1.53125 Z M 3.453125 -1.53125 "/></g></g></g><g fill="#000000" fill-opacity="1"><g transform="translate(51.9785, 15.661859)"><g><path d="M 0.3125 -3.046875 C 0.3125 -3.679688 0.4375 -4.234375 0.6875 -4.703125 C 0.945312 -5.179688 1.304688 -5.546875 1.765625 -5.796875 C 2.234375 -6.054688 2.769531 -6.1875 3.375 -6.1875 C 4.132812 -6.1875 4.769531 -5.984375 5.28125 -5.578125 C 5.800781 -5.179688 6.140625 -4.617188 6.296875 -3.890625 L 4.3125 -3.890625 C 4.144531 -4.359375 3.816406 -4.59375 3.328125 -4.59375 C 2.992188 -4.59375 2.722656 -4.457031 2.515625 -4.1875 C 2.304688 -3.925781 2.203125 -3.546875 2.203125 -3.046875 C 2.203125 -2.554688 2.304688 -2.175781 2.515625 -1.90625 C 2.722656 -1.644531 2.992188 -1.515625 3.328125 -1.515625 C 3.816406 -1.515625 4.144531 -1.742188 4.3125 -2.203125 L 6.296875 -2.203125 C 6.140625 -1.492188 5.800781 -0.929688 5.28125 -0.515625 C 4.757812 -0.109375 4.125 0.09375 3.375 0.09375 C 2.769531 0.09375 2.234375 -0.03125 1.765625 -0.28125 C 1.304688 -0.539062 0.945312 -0.90625 0.6875 -1.375 C 0.4375 -1.851562 0.3125 -2.410156 0.3125 -3.046875 Z M 0.3125 -3.046875 "/></g></g></g><g fill="#000000" fill-opacity="1"><g transform="translate(64.072403, 15.661859)"><g><path d="M 2.546875 -8.09375 L 2.546875 0 L 0.671875 0 L 0.671875 -8.09375 Z M 2.546875 -8.09375 "/></g></g></g><g fill="#000000" fill-opacity="1"><g transform="translate(72.773442, 15.661859)"><g><path d="M 1.625 -6.734375 C 1.289062 -6.734375 1.019531 -6.828125 0.8125 -7.015625 C 0.601562 -7.210938 0.5 -7.457031 0.5 -7.75 C 0.5 -8.039062 0.601562 -8.28125 0.8125 -8.46875 C 1.019531 -8.664062 1.289062 -8.765625 1.625 -8.765625 C 1.9375 -8.765625 2.195312 -8.664062 2.40625 -8.46875 C 2.613281 -8.28125 2.71875 -8.039062 2.71875 -7.75 C 2.71875 -7.457031 2.613281 -7.210938 2.40625 -7.015625 C 2.195312 -6.828125 1.9375 -6.734375 1.625 -6.734375 Z M 2.546875 -6.109375 L 2.546875 0 L 0.671875 0 L 0.671875 -6.109375 Z M 2.546875 -6.109375 "/></g></g></g><g fill="#000000" fill-opacity="1"><g transform="translate(81.47448, 15.661859)"><g><path d="M 4.390625 -6.171875 C 5.109375 -6.171875 5.679688 -5.9375 6.109375 -5.46875 C 6.535156 -5.007812 6.75 -4.375 6.75 -3.5625 L 6.75 0 L 4.890625 0 L 4.890625 -3.3125 C 4.890625 -3.71875 4.78125 -4.035156 4.5625 -4.265625 C 4.351562 -4.492188 4.070312 -4.609375 3.71875 -4.609375 C 3.363281 -4.609375 3.078125 -4.492188 2.859375 -4.265625 C 2.648438 -4.035156 2.546875 -3.71875 2.546875 -3.3125 L 2.546875 0 L 0.671875 0 L 0.671875 -6.109375 L 2.546875 -6.109375 L 2.546875 -5.296875 C 2.734375 -5.566406 2.988281 -5.78125 3.3125 -5.9375 C 3.632812 -6.09375 3.992188 -6.171875 4.390625 -6.171875 Z M 4.390625 -6.171875 "/></g></g></g><g fill="#000000" fill-opacity="1"><g transform="translate(94.323565, 15.661859)"><g><path d="M 4.40625 0 L 2.546875 -2.5625 L 2.546875 0 L 0.671875 0 L 0.671875 -8.09375 L 2.546875 -8.09375 L 2.546875 -3.625 L 4.390625 -6.109375 L 6.703125 -6.109375 L 4.171875 -3.046875 L 6.71875 0 Z M 4.40625 0 "/></g></g></g></svg>